<svg width="357" height="140" viewBox="0 0 357 140" fill="none" xmlns="http://www.w3.org/2000/svg">
<path d="M157.984 92C157.515 92 157.131 91.8507 156.832 91.552C156.533 91.2533 156.384 90.8693 156.384 90.4V76.32L141.408 49.248C141.365 49.12 141.323 49.0133 141.28 48.928C141.237 48.8 141.216 48.672 141.216 48.544C141.216 48.2027 141.344 47.904 141.6 47.648C141.899 47.3493 142.219 47.2 142.56 47.2H149.344C149.941 47.2 150.411 47.3493 150.752 47.648C151.093 47.9467 151.328 48.224 151.456 48.48L161.504 66.08L171.552 48.48C171.68 48.224 171.915 47.9467 172.256 47.648C172.597 47.3493 173.067 47.2 173.664 47.2H180.448C180.789 47.2 181.088 47.3493 181.344 47.648C181.643 47.904 181.792 48.2027 181.792 48.544C181.792 48.672 181.771 48.8 181.728 48.928C181.685 49.0133 181.643 49.12 181.6 49.248L166.624 76.32V90.4C166.624 90.8693 166.475 91.2533 166.176 91.552C165.877 91.8507 165.493 92 165.024 92H157.984ZM188.568 92C188.141 92 187.779 91.8507 187.48 91.552C187.181 91.2533 187.032 90.8693 187.032 90.4V60.32C187.032 59.8507 187.181 59.4667 187.48 59.168C187.779 58.8693 188.141 58.72 188.568 58.72H194.968C195.437 58.72 195.821 58.8693 196.12 59.168C196.419 59.4667 196.568 59.8507 196.568 60.32V90.4C196.568 90.8693 196.419 91.2533 196.12 91.552C195.821 91.8507 195.437 92 194.968 92H188.568ZM188.376 53.6C187.949 53.6 187.587 53.4507 187.288 53.152C186.989 52.8533 186.84 52.4693 186.84 52V46.88C186.84 46.4107 186.989 46.0267 187.288 45.728C187.587 45.3867 187.949 45.216 188.376 45.216H195.096C195.565 45.216 195.949 45.3867 196.248 45.728C196.589 46.0267 196.76 46.4107 196.76 46.88V52C196.76 52.4693 196.589 52.8533 196.248 53.152C195.949 53.4507 195.565 53.6 195.096 53.6H188.376ZM207.756 92C207.329 92 206.966 91.8507 206.668 91.552C206.369 91.2533 206.22 90.8693 206.22 90.4V60.32C206.22 59.8507 206.369 59.4667 206.668 59.168C206.966 58.8693 207.329 58.72 207.756 58.72H214.028C214.497 58.72 214.881 58.8693 215.18 59.168C215.478 59.4667 215.628 59.8507 215.628 60.32V62.816C216.737 61.4507 218.166 60.32 219.916 59.424C221.665 58.528 223.798 58.08 226.316 58.08C228.833 58.08 231.03 58.656 232.908 59.808C234.828 60.9173 236.321 62.56 237.388 64.736C238.497 66.8693 239.052 69.472 239.052 72.544V90.4C239.052 90.8693 238.881 91.2533 238.54 91.552C238.241 91.8507 237.878 92 237.451 92H230.668C230.198 92 229.814 91.8507 229.516 91.552C229.217 91.2533 229.068 90.8693 229.068 90.4V72.928C229.068 70.6667 228.513 68.9173 227.404 67.68C226.337 66.4 224.758 65.76 222.668 65.76C220.662 65.76 219.062 66.4 217.868 67.68C216.673 68.9173 216.076 70.6667 216.076 72.928V90.4C216.076 90.8693 215.926 91.2533 215.628 91.552C215.329 91.8507 214.966 92 214.54 92H207.756ZM266.048 92.64C263.616 92.64 261.589 92.2347 259.968 91.424C258.346 90.5707 257.024 89.504 256 88.224V90.4C256 90.8693 255.85 91.2533 255.552 91.552C255.253 91.8507 254.869 92 254.4 92H248.32C247.85 92 247.466 91.8507 247.168 91.552C246.869 91.2533 246.72 90.8693 246.72 90.4V48.16C246.72 47.6907 246.869 47.3067 247.168 47.008C247.466 46.7093 247.85 46.56 248.32 46.56H254.912C255.338 46.56 255.701 46.7093 256 47.008C256.298 47.3067 256.448 47.6907 256.448 48.16V62.112C257.514 60.9173 258.837 59.9573 260.416 59.232C261.994 58.464 263.872 58.08 266.048 58.08C268.266 58.08 270.186 58.464 271.808 59.232C273.472 59.9573 274.88 61.0027 276.032 62.368C277.184 63.6907 278.058 65.2693 278.656 67.104C279.296 68.9387 279.637 70.9653 279.68 73.184C279.722 73.952 279.744 74.6773 279.744 75.36C279.744 76 279.722 76.7253 279.68 77.536C279.594 79.7973 279.232 81.8667 278.592 83.744C277.994 85.5787 277.12 87.1787 275.968 88.544C274.858 89.8667 273.472 90.8907 271.808 91.616C270.186 92.2987 268.266 92.64 266.048 92.64ZM263.168 84.96C264.789 84.96 266.069 84.6187 267.008 83.936C267.946 83.2107 268.608 82.272 268.992 81.12C269.418 79.968 269.674 78.7093 269.76 77.344C269.845 76.0213 269.845 74.6987 269.76 73.376C269.674 72.0107 269.418 70.752 268.992 69.6C268.608 68.448 267.946 67.5307 267.008 66.848C266.069 66.1227 264.789 65.76 263.168 65.76C261.632 65.76 260.373 66.1013 259.392 66.784C258.453 67.4667 257.728 68.3413 257.216 69.408C256.746 70.432 256.49 71.5413 256.448 72.736C256.405 73.504 256.384 74.2933 256.384 75.104C256.384 75.9147 256.405 76.7253 256.448 77.536C256.533 78.816 256.789 80.0107 257.216 81.12C257.642 82.2293 258.346 83.1467 259.328 83.872C260.309 84.5973 261.589 84.96 263.168 84.96ZM301.764 92.64C298.223 92.64 295.257 92.064 292.868 90.912C290.479 89.7173 288.644 88.032 287.364 85.856C286.127 83.68 285.444 81.1413 285.316 78.24C285.273 77.3867 285.252 76.4267 285.252 75.36C285.252 74.2507 285.273 73.2907 285.316 72.48C285.444 69.536 286.169 66.9973 287.492 64.864C288.815 62.688 290.671 61.024 293.06 59.872C295.449 58.6773 298.351 58.08 301.764 58.08C305.135 58.08 308.015 58.6773 310.404 59.872C312.793 61.024 314.649 62.688 315.972 64.864C317.295 66.9973 318.02 69.536 318.148 72.48C318.233 73.2907 318.276 74.2507 318.276 75.36C318.276 76.4267 318.233 77.3867 318.148 78.24C318.02 81.1413 317.316 83.68 316.036 85.856C314.799 88.032 312.985 89.7173 310.596 90.912C308.207 92.064 305.263 92.64 301.764 92.64ZM301.764 85.6C303.855 85.6 305.433 84.96 306.5 83.68C307.567 82.3573 308.143 80.4373 308.228 77.92C308.271 77.28 308.292 76.4267 308.292 75.36C308.292 74.2933 308.271 73.44 308.228 72.8C308.143 70.3253 307.567 68.4267 306.5 67.104C305.433 65.7813 303.855 65.12 301.764 65.12C299.673 65.12 298.073 65.7813 296.964 67.104C295.897 68.4267 295.321 70.3253 295.236 72.8C295.193 73.44 295.172 74.2933 295.172 75.36C295.172 76.4267 295.193 77.28 295.236 77.92C295.321 80.4373 295.897 82.3573 296.964 83.68C298.073 84.96 299.673 85.6 301.764 85.6ZM322.437 92C322.053 92 321.711 91.872 321.413 91.616C321.157 91.3173 321.029 90.976 321.029 90.592C321.029 90.464 321.05 90.3147 321.093 90.144C321.178 89.9307 321.285 89.7387 321.413 89.568L332.229 74.912L322.309 61.152C322.181 60.9813 322.074 60.8107 321.989 60.64C321.946 60.4693 321.924 60.2987 321.924 60.128C321.924 59.744 322.053 59.424 322.309 59.168C322.607 58.8693 322.949 58.72 323.333 58.72H329.989C330.501 58.72 330.885 58.848 331.141 59.104C331.439 59.36 331.653 59.5947 331.781 59.808L338.373 68.768L344.965 59.872C345.135 59.6587 345.349 59.424 345.605 59.168C345.861 58.8693 346.266 58.72 346.821 58.72H353.157C353.541 58.72 353.861 58.8693 354.117 59.168C354.415 59.424 354.565 59.744 354.565 60.128C354.565 60.2987 354.543 60.4693 354.501 60.64C354.458 60.8107 354.351 60.9813 354.181 61.152L344.069 74.976L355.013 89.568C355.141 89.7387 355.226 89.9093 355.269 90.08C355.354 90.2507 355.397 90.4213 355.397 90.592C355.397 90.976 355.247 91.3173 354.949 91.616C354.693 91.872 354.373 92 353.989 92H347.013C346.543 92 346.181 91.8933 345.925 91.68C345.669 91.424 345.455 91.1893 345.285 90.976L338.181 81.504L330.949 90.976C330.821 91.1467 330.629 91.36 330.373 91.616C330.117 91.872 329.733 92 329.22 92H322.437Z" fill="white"/>
<path d="M43.88 112C43 112 42.28 111.72 41.72 111.16C41.16 110.6 40.88 109.88 40.88 109V31C40.88 30.12 41.16 29.4 41.72 28.84C42.28 28.28 43 28 43.88 28H79.52C86.16 28 91.6 28.96 95.84 30.88C100.08 32.8 103.2 35.52 105.2 39.04C107.28 42.56 108.32 46.68 108.32 51.4C108.32 54.36 107.76 56.96 106.64 59.2C105.6 61.44 104.28 63.28 102.68 64.72C101.16 66.16 99.68 67.24 98.24 67.96C101.36 69.4 104.08 71.8 106.4 75.16C108.8 78.44 110 82.36 110 86.92C110 91.96 108.88 96.36 106.64 100.12C104.4 103.88 101.08 106.8 96.68 108.88C92.28 110.96 86.92 112 80.6 112H43.88ZM59.96 97.96H78.32C82.24 97.96 85.2 96.88 87.2 94.72C89.2 92.48 90.2 89.84 90.2 86.8C90.2 83.68 89.16 81.08 87.08 79C85.08 76.84 82.16 75.76 78.32 75.76H59.96V97.96ZM59.96 61.96H77.24C81 61.96 83.8 61.04 85.64 59.2C87.56 57.28 88.52 54.84 88.52 51.88C88.52 48.92 87.56 46.56 85.64 44.8C83.8 42.96 81 42.04 77.24 42.04H59.96V61.96Z" fill="#474747"/>
<path d="M33.72 112C32.84 112 32.12 111.72 31.56 111.16C31 110.6 30.72 109.88 30.72 109V82.6L2.64 31.84C2.56 31.6 2.48 31.4 2.4 31.24C2.32 31 2.28 30.76 2.28 30.52C2.28 29.88 2.52 29.32 3 28.84C3.56 28.28 4.16 28 4.8 28H17.52C18.64 28 19.52 28.28 20.16 28.84C20.8 29.4 21.24 29.92 21.48 30.4L40.32 63.4L59.16 30.4C59.4 29.92 59.84 29.4 60.48 28.84C61.12 28.28 62 28 63.12 28H75.84C76.48 28 77.04 28.28 77.52 28.84C78.08 29.32 78.36 29.88 78.36 30.52C78.36 30.76 78.32 31 78.24 31.24C78.16 31.4 78.08 31.6 78 31.84L49.92 82.6V109C49.92 109.88 49.64 110.6 49.08 111.16C48.52 111.72 47.8 112 46.92 112H33.72Z" fill="white"/>
</svg>
